# xmcd
#
# Track frame offsets: 
#        150
#        16674
#        30360
#        56401
#        69497
#        98362
#        113149
#        135648
#        153607
#        162626
#        183608
#
# Disc length: 2703 seconds
#
# Revision: 0
# Processed by: cddbd v1.5.2PL0 Copyright (c) Steve Scherf et al.
# Submitted via: ExactAudioCopyFreeDBPlugin 1.0
#
DISCID=850a8d0b
DTITLE=Barrelhouse - Barrelhouse
DYEAR=1975
DGENRE=Blues
TTITLE0=I'm In The Mood
TTITLE1=Way Down Low
TTITLE2=Worried Life Blues
TTITLE3=South Side Stomp
TTITLE4=If You Really Wanna Leave Me
TTITLE5=Dirty Dozen
TTITLE6=Get Like You Used To Be
TTITLE7=Harris County Line Up
TTITLE8=Twenty Nine Ways
TTITLE9=Going Down
TTITLE10=You Don't Have To Go
EXTD=
EXTT0=
EXTT1=
EXTT2=
EXTT3=
EXTT4=
EXTT5=
EXTT6=
EXTT7=
EXTT8=
EXTT9=
EXTT10=
PLAYORDER=
